# xmcd
#
# Track frame offsets: 
#        150
#        16079
#        36493
#        53757
#        72940
#        86316
#        104024
#        121694
#        142945
#        162696
#
# Disc length: 2446 seconds
#
# Revision: 1
# Processed by: cddbd v1.5.2PL0 Copyright (c) Steve Scherf et al.
# Submitted via: ExactAudioCopy v0.99pb5
#
DISCID=80098c0a
DTITLE=Charlie Palmieri - Charlie Palmieri 
DYEAR=1900
DGENRE=Salsa
TTITLE0=Porque me Engañas - Raul Marrero
TTITLE1=Dame Tu Corazon
TTITLE2=Sobando El Piano Merengue
TTITLE3=Te Quiero A Ti
TTITLE4=Estoy Friza'o
TTITLE5=Aunque Mami No Quiera
TTITLE6=No Esta En Na'
TTITLE7=Buchipluma Na' Ma'
TTITLE8=Comelon
TTITLE9=King Charles
EXTD=
EXTT0=
EXTT1=
EXTT2=
EXTT3=
EXTT4=
EXTT5=
EXTT6=
EXTT7=
EXTT8=
EXTT9=
PLAYORDER=
